<mxfile host="app.diagrams.net" agent="Mozilla/5.0 (Macintosh; Intel Mac OS X 10_15_7) AppleWebKit/537.36 (KHTML, like Gecko) Chrome/131.0.0.0 Safari/537.36" version="25.0.3">
  <diagram name="Page-1" id="e7e014a7-5840-1c2e-5031-d8a46d1fe8dd">
    <mxGraphModel dx="1193" dy="799" grid="1" gridSize="10" guides="1" tooltips="1" connect="1" arrows="1" fold="1" page="1" pageScale="1" pageWidth="1169" pageHeight="826" background="none" math="0" shadow="0">
      <root>
        <mxCell id="0" />
        <mxCell id="1" parent="0" />
        <mxCell id="2" value="Clientt" style="swimlane;whiteSpace=wrap" parent="1" vertex="1">
          <mxGeometry x="164.5" y="128" width="280" height="692" as="geometry" />
        </mxCell>
        <mxCell id="5" value="" style="ellipse;shape=startState;fillColor=#000000;strokeColor=#ff0000;" parent="2" vertex="1">
          <mxGeometry x="100" y="40" width="30" height="30" as="geometry" />
        </mxCell>
        <mxCell id="6" value="" style="edgeStyle=elbowEdgeStyle;elbow=horizontal;verticalAlign=bottom;endArrow=open;endSize=8;strokeColor=#FF0000;endFill=1;rounded=0" parent="2" source="5" target="7" edge="1">
          <mxGeometry x="100" y="40" as="geometry">
            <mxPoint x="115" y="110" as="targetPoint" />
          </mxGeometry>
        </mxCell>
        <mxCell id="7" value="Login to app" style="" parent="2" vertex="1">
          <mxGeometry x="60" y="110" width="110" height="50" as="geometry" />
        </mxCell>
        <mxCell id="KkI3PaSvtDHpwUbonh1U-47" value="is registered?" style="rhombus;fillColor=#ffffc0;strokeColor=#ff0000;" vertex="1" parent="2">
          <mxGeometry x="75" y="212" width="80" height="40" as="geometry" />
        </mxCell>
        <mxCell id="KkI3PaSvtDHpwUbonh1U-50" value="" style="endArrow=none;html=1;rounded=0;exitX=0.5;exitY=0;exitDx=0;exitDy=0;" edge="1" parent="2" source="KkI3PaSvtDHpwUbonh1U-47">
          <mxGeometry width="50" height="50" relative="1" as="geometry">
            <mxPoint x="65.5" y="210" as="sourcePoint" />
            <mxPoint x="115.5" y="160" as="targetPoint" />
          </mxGeometry>
        </mxCell>
        <mxCell id="KkI3PaSvtDHpwUbonh1U-51" value="" style="endArrow=none;html=1;rounded=0;entryX=0.625;entryY=0;entryDx=0;entryDy=0;entryPerimeter=0;" edge="1" parent="2" target="KkI3PaSvtDHpwUbonh1U-59">
          <mxGeometry width="50" height="50" relative="1" as="geometry">
            <mxPoint x="155" y="232" as="sourcePoint" />
            <mxPoint x="195.5" y="302" as="targetPoint" />
            <Array as="points">
              <mxPoint x="175.5" y="232" />
            </Array>
          </mxGeometry>
        </mxCell>
        <mxCell id="KkI3PaSvtDHpwUbonh1U-52" value="" style="endArrow=none;html=1;rounded=0;" edge="1" parent="2">
          <mxGeometry width="50" height="50" relative="1" as="geometry">
            <mxPoint x="75" y="232" as="sourcePoint" />
            <mxPoint x="40.5" y="292" as="targetPoint" />
            <Array as="points">
              <mxPoint x="40.5" y="232" />
            </Array>
          </mxGeometry>
        </mxCell>
        <mxCell id="KkI3PaSvtDHpwUbonh1U-53" value="Sign up" style="rounded=1;whiteSpace=wrap;html=1;" vertex="1" parent="2">
          <mxGeometry x="15.5" y="292" width="70" height="40" as="geometry" />
        </mxCell>
        <mxCell id="KkI3PaSvtDHpwUbonh1U-59" value="User Views Available Therapists&amp;nbsp;" style="rounded=1;whiteSpace=wrap;html=1;" vertex="1" parent="2">
          <mxGeometry x="125.5" y="292" width="80" height="50" as="geometry" />
        </mxCell>
        <mxCell id="KkI3PaSvtDHpwUbonh1U-60" value="dose select?" style="rhombus;fillColor=#ffffc0;strokeColor=#ff0000;" vertex="1" parent="2">
          <mxGeometry x="125.5" y="362" width="80" height="40" as="geometry" />
        </mxCell>
        <mxCell id="KkI3PaSvtDHpwUbonh1U-61" value="" style="endArrow=none;html=1;rounded=0;entryX=0.5;entryY=1;entryDx=0;entryDy=0;exitX=0.5;exitY=0;exitDx=0;exitDy=0;" edge="1" parent="2" source="KkI3PaSvtDHpwUbonh1U-60" target="KkI3PaSvtDHpwUbonh1U-59">
          <mxGeometry width="50" height="50" relative="1" as="geometry">
            <mxPoint x="195.5" y="372" as="sourcePoint" />
            <mxPoint x="245.5" y="322" as="targetPoint" />
          </mxGeometry>
        </mxCell>
        <mxCell id="KkI3PaSvtDHpwUbonh1U-63" value="" style="endArrow=none;html=1;rounded=0;" edge="1" parent="2">
          <mxGeometry width="50" height="50" relative="1" as="geometry">
            <mxPoint x="75.5" y="402" as="sourcePoint" />
            <mxPoint x="125.5" y="382" as="targetPoint" />
            <Array as="points">
              <mxPoint x="75.5" y="382" />
            </Array>
          </mxGeometry>
        </mxCell>
        <mxCell id="KkI3PaSvtDHpwUbonh1U-65" value="" style="endArrow=none;html=1;rounded=0;" edge="1" parent="2">
          <mxGeometry width="50" height="50" relative="1" as="geometry">
            <mxPoint x="205.5" y="382" as="sourcePoint" />
            <mxPoint x="235.5" y="432" as="targetPoint" />
            <Array as="points">
              <mxPoint x="235.5" y="382" />
            </Array>
          </mxGeometry>
        </mxCell>
        <mxCell id="KkI3PaSvtDHpwUbonh1U-67" value="User Selects Therapy Session Time&amp;nbsp;" style="whiteSpace=wrap;html=1;" vertex="1" parent="2">
          <mxGeometry x="185.5" y="432" width="90" height="50" as="geometry" />
        </mxCell>
        <mxCell id="KkI3PaSvtDHpwUbonh1U-83" value="Is selected timeÂ &#xa;available?" style="rhombus;fillColor=#ffffc0;strokeColor=#ff0000;" vertex="1" parent="2">
          <mxGeometry x="175.5" y="502" width="95" height="58" as="geometry" />
        </mxCell>
        <mxCell id="KkI3PaSvtDHpwUbonh1U-84" value="" style="endArrow=none;html=1;rounded=0;entryX=0.5;entryY=0;entryDx=0;entryDy=0;exitX=0.5;exitY=1;exitDx=0;exitDy=0;" edge="1" parent="2" source="KkI3PaSvtDHpwUbonh1U-67" target="KkI3PaSvtDHpwUbonh1U-83">
          <mxGeometry width="50" height="50" relative="1" as="geometry">
            <mxPoint x="235" y="482" as="sourcePoint" />
            <mxPoint x="165.5" y="492" as="targetPoint" />
          </mxGeometry>
        </mxCell>
        <mxCell id="KkI3PaSvtDHpwUbonh1U-85" value="" style="endArrow=none;html=1;rounded=0;exitX=0;exitY=0.5;exitDx=0;exitDy=0;entryX=0;entryY=0.5;entryDx=0;entryDy=0;" edge="1" parent="2" source="KkI3PaSvtDHpwUbonh1U-83" target="KkI3PaSvtDHpwUbonh1U-67">
          <mxGeometry width="50" height="50" relative="1" as="geometry">
            <mxPoint x="133" y="502" as="sourcePoint" />
            <mxPoint x="155.5" y="462" as="targetPoint" />
            <Array as="points">
              <mxPoint x="155.5" y="531" />
              <mxPoint x="155.5" y="457" />
            </Array>
          </mxGeometry>
        </mxCell>
        <mxCell id="3" value="Paypal" style="swimlane;whiteSpace=wrap" parent="1" vertex="1">
          <mxGeometry x="445" y="128" width="280" height="692" as="geometry" />
        </mxCell>
        <mxCell id="KkI3PaSvtDHpwUbonh1U-87" value="YES" style="text;html=1;align=center;verticalAlign=middle;resizable=0;points=[];autosize=1;strokeColor=none;fillColor=none;" vertex="1" parent="3">
          <mxGeometry x="15.5" y="502" width="50" height="30" as="geometry" />
        </mxCell>
        <mxCell id="KkI3PaSvtDHpwUbonh1U-90" value="User pay and confirm" style="whiteSpace=wrap;html=1;" vertex="1" parent="3">
          <mxGeometry x="75.5" y="506" width="90" height="50" as="geometry" />
        </mxCell>
        <mxCell id="KkI3PaSvtDHpwUbonh1U-92" value="accomplished payment" style="rhombus;fillColor=#ffffc0;strokeColor=#ff0000;" vertex="1" parent="3">
          <mxGeometry x="73" y="402" width="95" height="58" as="geometry" />
        </mxCell>
        <mxCell id="KkI3PaSvtDHpwUbonh1U-88" value="" style="endArrow=none;html=1;rounded=0;exitX=0.5;exitY=0;exitDx=0;exitDy=0;entryX=0.5;entryY=1;entryDx=0;entryDy=0;" edge="1" parent="3" source="KkI3PaSvtDHpwUbonh1U-90" target="KkI3PaSvtDHpwUbonh1U-92">
          <mxGeometry width="50" height="50" relative="1" as="geometry">
            <mxPoint x="75.5" y="510" as="sourcePoint" />
            <mxPoint x="125.5" y="460" as="targetPoint" />
          </mxGeometry>
        </mxCell>
        <mxCell id="KkI3PaSvtDHpwUbonh1U-94" value="" style="endArrow=none;html=1;rounded=0;entryX=1;entryY=0.5;entryDx=0;entryDy=0;" edge="1" parent="3" target="KkI3PaSvtDHpwUbonh1U-90">
          <mxGeometry width="50" height="50" relative="1" as="geometry">
            <mxPoint x="165.5" y="432" as="sourcePoint" />
            <mxPoint x="215.5" y="382" as="targetPoint" />
            <Array as="points">
              <mxPoint x="185" y="432" />
              <mxPoint x="185" y="531" />
            </Array>
          </mxGeometry>
        </mxCell>
        <mxCell id="KkI3PaSvtDHpwUbonh1U-96" value="" style="endArrow=none;html=1;rounded=0;exitX=0;exitY=0.5;exitDx=0;exitDy=0;" edge="1" parent="3" source="KkI3PaSvtDHpwUbonh1U-97">
          <mxGeometry width="50" height="50" relative="1" as="geometry">
            <mxPoint x="35" y="312" as="sourcePoint" />
            <mxPoint x="73" y="432" as="targetPoint" />
            <Array as="points">
              <mxPoint x="35" y="272" />
              <mxPoint x="35" y="432" />
            </Array>
          </mxGeometry>
        </mxCell>
        <mxCell id="KkI3PaSvtDHpwUbonh1U-98" value="YES&lt;div&gt;&lt;br&gt;&lt;/div&gt;" style="text;html=1;align=center;verticalAlign=middle;resizable=0;points=[];autosize=1;strokeColor=none;fillColor=none;" vertex="1" parent="3">
          <mxGeometry x="25.5" y="392" width="50" height="40" as="geometry" />
        </mxCell>
        <mxCell id="4" value="subsystem" style="swimlane;whiteSpace=wrap" parent="1" vertex="1">
          <mxGeometry x="724.5" y="128" width="280" height="692" as="geometry" />
        </mxCell>
        <mxCell id="KkI3PaSvtDHpwUbonh1U-102" value="" style="whiteSpace=wrap;html=1;" vertex="1" parent="4">
          <mxGeometry x="20.5" y="402" width="120" height="60" as="geometry" />
        </mxCell>
        <mxCell id="KkI3PaSvtDHpwUbonh1U-97" value="Insert session to data base" style="whiteSpace=wrap;html=1;" vertex="1" parent="4">
          <mxGeometry x="35.5" y="242" width="90" height="50" as="geometry" />
        </mxCell>
        <mxCell id="KkI3PaSvtDHpwUbonh1U-99" value="" style="endArrow=none;html=1;rounded=0;" edge="1" parent="4">
          <mxGeometry width="50" height="50" relative="1" as="geometry">
            <mxPoint x="75.5" y="292" as="sourcePoint" />
            <mxPoint x="75.5" y="402" as="targetPoint" />
          </mxGeometry>
        </mxCell>
        <mxCell id="KkI3PaSvtDHpwUbonh1U-101" value="" style="ellipse;html=1;shape=endState;fillColor=#000000;strokeColor=#ff0000;" vertex="1" parent="4">
          <mxGeometry x="65.5" y="502" width="30" height="30" as="geometry" />
        </mxCell>
        <mxCell id="KkI3PaSvtDHpwUbonh1U-100" value="Notify psychologist" style="text;html=1;align=center;verticalAlign=middle;resizable=0;points=[];autosize=1;strokeColor=none;fillColor=none;" vertex="1" parent="4">
          <mxGeometry x="20.5" y="417" width="120" height="30" as="geometry" />
        </mxCell>
        <mxCell id="KkI3PaSvtDHpwUbonh1U-104" value="" style="endArrow=none;html=1;rounded=0;exitX=0.5;exitY=0;exitDx=0;exitDy=0;" edge="1" parent="4" source="KkI3PaSvtDHpwUbonh1U-101" target="KkI3PaSvtDHpwUbonh1U-102">
          <mxGeometry width="50" height="50" relative="1" as="geometry">
            <mxPoint x="20.5" y="512" as="sourcePoint" />
            <mxPoint x="70.5" y="462" as="targetPoint" />
          </mxGeometry>
        </mxCell>
        <mxCell id="KkI3PaSvtDHpwUbonh1U-54" value="NO" style="text;html=1;align=center;verticalAlign=middle;resizable=0;points=[];autosize=1;strokeColor=none;fillColor=none;" vertex="1" parent="1">
          <mxGeometry x="200" y="338" width="40" height="30" as="geometry" />
        </mxCell>
        <mxCell id="KkI3PaSvtDHpwUbonh1U-55" value="YES" style="text;html=1;align=center;verticalAlign=middle;resizable=0;points=[];autosize=1;strokeColor=none;fillColor=none;" vertex="1" parent="1">
          <mxGeometry x="325" y="328" width="50" height="30" as="geometry" />
        </mxCell>
        <mxCell id="KkI3PaSvtDHpwUbonh1U-64" value="NO" style="text;html=1;align=center;verticalAlign=middle;resizable=0;points=[];autosize=1;strokeColor=none;fillColor=none;" vertex="1" parent="1">
          <mxGeometry x="230" y="478" width="40" height="30" as="geometry" />
        </mxCell>
        <mxCell id="KkI3PaSvtDHpwUbonh1U-66" value="YES" style="text;html=1;align=center;verticalAlign=middle;resizable=0;points=[];autosize=1;strokeColor=none;fillColor=none;" vertex="1" parent="1">
          <mxGeometry x="365" y="478" width="50" height="30" as="geometry" />
        </mxCell>
        <mxCell id="KkI3PaSvtDHpwUbonh1U-86" value="NO" style="text;html=1;align=center;verticalAlign=middle;resizable=0;points=[];autosize=1;strokeColor=none;fillColor=none;" vertex="1" parent="1">
          <mxGeometry x="290" y="608" width="40" height="30" as="geometry" />
        </mxCell>
        <mxCell id="KkI3PaSvtDHpwUbonh1U-89" value="" style="endArrow=none;html=1;rounded=0;exitX=1;exitY=0.5;exitDx=0;exitDy=0;entryX=0;entryY=0.5;entryDx=0;entryDy=0;" edge="1" parent="1" source="KkI3PaSvtDHpwUbonh1U-83" target="KkI3PaSvtDHpwUbonh1U-90">
          <mxGeometry width="50" height="50" relative="1" as="geometry">
            <mxPoint x="440" y="660" as="sourcePoint" />
            <mxPoint x="520" y="660" as="targetPoint" />
          </mxGeometry>
        </mxCell>
        <mxCell id="KkI3PaSvtDHpwUbonh1U-95" value="NO" style="text;html=1;align=center;verticalAlign=middle;resizable=0;points=[];autosize=1;strokeColor=none;fillColor=none;" vertex="1" parent="1">
          <mxGeometry x="630" y="618" width="40" height="30" as="geometry" />
        </mxCell>
      </root>
    </mxGraphModel>
  </diagram>
</mxfile>
